<?xml version="1.0" encoding="utf-8"?>
<!DOCTYPE svg PUBLIC "-//W3C//DTD SVG 1.1//EN" "http://www.w3.org/Graphics/SVG/1.1/DTD/svg11.dtd">
<svg version="1.1" id="Layer_1" xmlns="http://www.w3.org/2000/svg" xmlns:xlink="http://www.w3.org/1999/xlink" x="0px" y="0px"
	 viewBox="0 0 2724.2725 1725.1726" enable-background="new 0 0 2724.2725 1725.1726" xml:space="preserve">
<g>
	<path fill="#FFEA00" d="M0,1725.1726h2724.2725V0H0V1725.1726z M771.2337,1298.4469
		c-106.8495,82.9686-199.0918,179.9509-277.0471,290.5175c-1.907,2.7048-3.9116,5.3433-5.954,7.9473
		c-0.3264,0.4163-1.0938,0.4866-1.1809,0.5222c1.0489-8.1753,5.4189-15.1196,10.2003-21.9601
		c91.381-130.7354,200.7679-243.5651,332.754-333.7496c75.7945-51.7896,156.9105-92.9148,245.0853-119.4182
		c49.6202-14.9147,100.226-24.5081,151.953-27.9711c2.6327-0.1761,5.3217-0.031,7.9441,0.2922
		c3.0416,0.3748,6.0416,1.266,7.0513,4.6654c1.077,3.6261-0.6344,6.5837-3.1313,8.9156c-4.1193,3.8469-9.2701,4.9226-14.7852,4.9296
		c-16.6869,0.0208-33.2654,1.5885-49.8275,3.5046c-59.9734,6.9382-117.4417,23.2646-173.1787,46.0831
		C917.8982,1196.7948,842.0579,1243.4518,771.2337,1298.4469z M1579.1086,1132.1515c-4.4225,1.7861-9.1481,1.6636-13.8059,1.7324
		c-35.9894,0.5317-71.9415,1.6173-107.7875,5.2689c-63.2247,6.4404-124.7092,19.7345-182.8794,46.0823
		c-4.8993,2.2191-10.9449,2.4602-16.097,8.9365c70.9962-15.9095,139.5681-34.4135,211.2427-44.0905
		c-5.22,6.4742-6.5625,7.3982-14.4968,9.1173c-8.459,1.8328-17.0319,3.1576-25.4595,5.1151
		c-31.5963,7.3392-61.499,19.4976-91.1665,32.3154c-31.1666,13.4655-61.9135,27.9299-93.8877,39.4794
		c-14.7296,5.3204-29.7559,9.5631-44.9193,13.4863c-12.9484,3.3502-24.4349-0.0903-35.5192-5.874
		c-8.2864-4.3239-8.6045-7.7402-1.9711-14.3667c24.9337-24.9075,52.9866-45.6024,84.3046-61.8074
		c39.4727-20.4246,81.6027-32.0967,125.4388-38.3818c49.7023-7.1263,99.6841-6.452,149.6718-6.0336
		c18.6626,0.1563,37.3256,0.2802,55.9874,0.4922c3.2305,0.0366,8.2084-1.1318,8.9346,2.3325
		C1587.6216,1130.3582,1582.3308,1130.85,1579.1086,1132.1515z M2288.8972,1466.8513
		c-82.8301-115.5067-182.217-213.8794-302.1494-290.7576c-60.3317-38.6735-124.516-69.1232-194.0625-87.5765
		c-36.5375-9.6946-73.6692-15.2189-111.427-16.5981c-4.7245-0.1726-9.3844-0.2821-13.0198-3.9094
		c-1.9567-1.9525-3.4703-4.1908-2.8097-7.1018c0.7155-3.1522,3.4186-3.9824,6.1118-4.2246
		c2.9614-0.2664,5.9779-0.2162,8.9509-0.0154c55.901,3.7754,109.8687,16.405,162.3331,35.7477
		c81.1,29.9003,154.231,73.8018,221.8447,127.1818c87.2341,68.87,161.7964,149.6489,225.0781,240.9294
		c5.5706,8.0353,6.1753,9.6001,7.2488,16.8877C2294.123,1475.0033,2291.709,1470.7723,2288.8972,1466.8513z M2676.6785,1513.5154
		c-12.5857-19.4246-24.9292-39.1475-38.3469-58.1674c-68.9985-97.8075-154.3821-178.8174-253.0364-246.0759
		c-119.8521-81.7104-250.8418-138.5256-391.3206-173.8857c-60.4945-15.2271-121.8328-25.6913-183.9181-31.5714
		c-33.5081-3.1736-67.1162-5.0488-100.806-4.8806c-3.321,0.0166-6.7098,0.1099-9.9509-0.4758
		c-5.7971-1.0479-8.5317-4.1611-8.8646-9.2059c-0.3601-5.4573,2.3192-9.7998,7.4952-11.6912
		c3.4795-1.2716,7.165-1.4279,10.854-1.3555c36.3158,0.713,72.5474,2.4325,108.6959,6.4138
		c81.7378,9.0027,161.547,26.7113,239.4652,52.7463c174.0081,58.1417,329.5095,147.7151,462.8496,274.4481
		c57.2605,54.423,107.2751,114.8682,148.8718,182.1581C2672.7571,1498.5886,2675.4585,1505.582,2676.6785,1513.5154z
		 M2547.7993,1196.6276c-6.9009-5.6021-13.7056-11.3278-20.7168-16.7882c-128.8079-100.3136-269.8406-177.9884-425.145-229.1014
		c-68.2058-22.4475-137.9478-38.1418-209.5083-44.7565c-76.8306-7.1016-153.0475-3.605-228.0544,16.0208
		c-5.3127,1.39-10.4298,2.1206-15.5509-0.4153c-3.49-1.7283-6.1702-4.2072-6.1171-8.3613c0.0503-3.9369,3.1477-5.6298,6.2314-7.0404
		c4.9017-2.2421,10.2537-2.8289,15.4601-3.8801c57.3906-11.5887,115.3185-16.0072,173.844-13.7822
		c118.5421,4.5067,231.5546,33.1899,340.8754,77.7687c130.1711,53.0806,248.96,125.2881,357.6345,214.3206
		C2541.979,1184.8939,2545.4177,1190.3674,2547.7993,1196.6276z M1529.1608,445.5486c0.3695-4.155,0.8069-6.8251,6.0511-6.7659
		c7.4397,0.084,8.0081-0.1465,8.8464,5.9664c2.2634,16.5057,4.8418,32.9352,9.2069,49.0446
		c4.3688,16.1223,10.4117,31.5697,17.8331,46.5392c2.4216,4.8849,4.9683,6.4603,10.77,5.7471
		c52.7584-6.4872,104.0322-19.2081,154.431-35.7842c78.0029-25.6549,152.3278-59.9279,225.7537-96.3147
		c75.1696-37.2506,148.9733-77.1925,224.4406-113.8546c30.2483-14.6946,60.7446-28.8536,91.6392-42.1423
		c6.7534-2.905,11.1177-0.0345,11.6794,7.3838c0.158,2.087-1.0154,2.9849-2.5486,3.7412c-2.3882,1.178-4.793,2.3232-7.2019,3.4585
		c-59.9846,28.2712-118.1243,60.0562-175.9622,92.4143c-1.9463,1.0886-4.323,1.6923-5.3618,3.9956
		c0.3301,0.5851,0.5056,1.4244,0.9404,1.5922c34.8567,13.4501,56.3201,39.5895,67.9922,73.9528
		c18.835,55.4489,13.1992,109.7446-11.0332,162.2916c-23.9287,51.8879-63.2141,89.5044-113.1138,115.9775
		c-60.1216,31.8964-124.2686,47.4211-192.5629,42.1855c-45.5571-3.4924-89.4432-13.9722-129.9755-35.9539
		c-18.9058-10.2532-35.7637-23.1906-49.5509-39.86c-25.2546-30.5343-33.2651-65.2639-25.2062-103.8938
		c0.7231-3.4661,1.2797-6.9668,2.1072-11.5157c-14.0355,2.9012-26.9257,5.6583-39.8553,8.2145
		c-16.0117,3.1656-32.1748,5.3759-48.3347,7.6482c-5.8708,0.8256-8.905-0.5735-11.4989-6.1124
		c-8.8468-18.8917-13.9041-38.8251-17.3175-59.2311C1526.9595,498.1536,1526.8193,471.8872,1529.1608,445.5486z M1631.5043,779.0959
		c11.1974,4.3994,21.9928,9.5398,31.5824,16.9193c16.8468,12.9644,20.4078,29.1342,8.7319,49.3479
		c-5.6754,9.8254-14.2012,16.8479-24.759,20.8856c-14.485,5.5389-29.5244,8.0846-45.0676,6.0299
		c-8.276-1.094-16.5458-1.6957-24.9027-1.4753c-13.9781,0.3688-25.8621,5.6088-36.0532,14.9788
		c-6.6411,6.1061-12.4069,13.0178-18.1305,19.9586c-18.4882,22.4204-40.2366,40.7189-67.057,52.4047
		c-4.376,1.9064-5.6418,5.0728-6.6338,9.0529c-4.505,18.0768-9.0857,36.1349-13.6725,54.191
		c-0.9827,3.8685-2.5298,7.642-3.08,11.5626c-1.5374,10.9532-8.9486,14.8323-18.6339,16.0632
		c-2.9487,0.3749-5.9915,0.3644-8.9595,0.1294c-2.7755-0.2197-4.1874-1.9656-3.3925-4.8446
		c1.0627-3.8488,2.3961-7.6252,3.3881-11.4905c5.3749-20.9454,10.6703-41.9114,16.0201-62.8632
		c0.8851-3.4664,1.5819-6.1366-3.5615-7.2393c-5.629-1.2069-8.5182-5.9064-10.2271-11.3058
		c-1.3213-4.1753-1.7878-8.4451-2.2296-12.7584c-2.9374-28.6747-17.9628-48.7629-43.6864-61.1517
		c-17.8912-8.6166-37.1915-12.3572-56.4736-16.1482c-13.3857-2.6317-26.7897-5.1848-40.1202-8.0745
		c-5.1819-1.1234-10.276-2.8298-15.2529-4.6908c-24.5177-9.1675-37.3728-26.7379-37.8362-53.095
		c-0.0234-1.3301-0.0801-2.66-0.1516-3.9885c-0.0177-0.3263-0.1547-0.6462-0.3197-1.2955
		c-3.9969-1.5006-7.9746,1.6825-11.3556-1.9457c3.3665-5.6732,9.1683-7.4089,14.9338-8.3689
		c62.6973-10.4384,124.9487-23.6532,188.2957-30.057C1481.386,741.8929,1557.7611,750.1218,1631.5043,779.0959z M350.3032,250.3801
		c1.126-3.0414,0.3339-7.6316,6.5407-6.116c20.6915,5.0529,41.3447,10.2322,61.8246,16.0847
		c88.1922,25.2021,173.1991,59.0042,257.2248,95.4304c79.0955,34.2888,157.2036,70.8176,236.6208,104.3784
		c77.007,32.5422,154.9777,62.385,235.8997,83.9128c46.0485,12.2501,92.6003,21.9634,139.9363,27.8021
		c4.8635,0.5999,7.9025-0.033,10.8365-4.3096c42.4027-61.807,84.7205-123.6569,119.033-190.5162
		c8.0588-15.7029,15.6129-31.6443,22.7369-47.793c1.0044-2.2771,1.2406-5.8936,4.6284-5.5931
		c3.2148,0.285,6.739,1.1469,9.1614,3.4838c2.3527,2.2693,0.3359,5.0398-0.4023,7.4468
		c-5.3684,17.5007-11.3923,34.7805-17.9452,51.8715c-24.8483,64.809-56.636,126.3107-89.448,187.3158
		c-7.7257,14.3638-16.0725,28.3987-23.5802,42.8718c-3.2461,6.2577-7.4567,7.0551-13.7841,6.1415
		c-42.2131-6.0947-84.0709-13.895-125.3035-24.8984c-2.5314-0.6753-5.1118-1.5975-7.9176-0.795
		c-1.9929,9.3741-3.5902,18.8745-6.0568,28.1434c-10.3828,39.0186-32.7369,70.3191-63.1775,96.1514
		c-31.234,26.5056-67.1903,44.2086-106.343,55.5454c-78.8369,22.8271-157.7892,22.7991-236.4564-0.4906
		c-65.7638-19.4696-114.5651-60.8772-149.4573-119.181c-24.477-40.9003-35.9182-85.7023-37.7512-133.1074
		c-1.6692-43.1696,4.3467-85.0519,21.8535-124.8439c6.2859-14.2876,12.6017-28.6821,25.5753-39.1514
		c-2.0174-1.176-3.3664-2.1252-4.8412-2.799c-76.6616-35.0255-154.4913-67.0323-235.4556-90.9113
		c-10.2141-3.0125-20.4214-6.0869-30.7518-8.6489C348.4901,256.562,349.0573,253.7451,350.3032,250.3801z M201.6906,1241.9927
		c81.5671-67.0015,168.6566-125.8439,261.2004-176.584c105.4924-57.8396,215.6877-104.1683,332.1902-134.9318
		c62.2484-16.437,125.3444-27.9735,189.5278-33.6632c51.5728-4.5719,103.1429-5.0427,154.7345-1.2303
		c38.2294,2.8253,76.0981,8.4546,113.5854,16.53c4.2303,0.9113,8.4666,1.9393,12.1311,4.4182
		c5.3771,3.6373,6.1052,8.8412,1.5234,13.4108c-5.7646,5.7498-12.8893,6.3121-20.4478,4.5258
		c-12.953-3.0614-25.853-6.3829-38.8809-9.0863c-59.343-12.3132-119.3771-16.1213-179.8613-14.3309
		c-78.9542,2.3374-156.3605,15.0787-232.6027,35.1161c-149.952,39.4092-289.3875,103.1025-421.4023,183.6978
		c-60.059,36.6661-117.6179,76.9315-172.4722,121.0342c-4.7584,3.8256-9.609,7.5363-15.5201,12.1642
		C189.3076,1253.6298,194.9961,1247.4919,201.6906,1241.9927z M46.202,1609.9563
		c51.992-82.9883,114.6793-157.0909,186.2966-223.6558c148.7939-138.2966,320.5196-238.5691,511.3507-306.8372
		c83.9133-30.0193,169.9556-51.9518,258.0164-65.7007c62.3057-9.7278,125.0133-15.0126,188.1117-15.1047
		c3.9781-0.0059,8.0807,0.0286,11.9089,0.9469c7.3002,1.7516,11.1249,7.6932,10.3624,14.9594
		c-0.6736,6.4192-4.5981,9.913-12.2996,10.7008c-2.6431,0.2705-5.3262,0.1824-7.9913,0.1971
		c-96.9359,0.5352-192.7552,11.2393-287.5995,31.1852c-136.3834,28.6818-266.357,75.1316-389.6021,140.236
		c-116.5742,61.5806-222.501,137.7417-315.5373,231.4248c-61.7922,62.2219-115.7173,130.6156-160.8671,205.855
		c-1.1987,1.9978-2.3528,4.0281-3.6675,5.9475c-0.7084,1.0339-1.7139,1.8643-2.3472,2.5347
		C34.6053,1630.8435,39.7653,1620.2302,46.202,1609.9563z"/>
	<path fill="#050502" d="M1445.5848,323.6608c-3.3878-0.3004-3.624,3.316-4.6284,5.5931
		c-7.124,16.1487-14.6781,32.0901-22.7369,47.793c-34.3125,66.8594-76.6302,128.7092-119.033,190.5162
		c-2.9341,4.2766-5.973,4.9094-10.8365,4.3096c-47.3359-5.8387-93.8878-15.552-139.9363-27.8021
		c-80.922-21.5278-158.8927-51.3706-235.8997-83.9128c-79.4172-33.5608-157.5253-70.0896-236.6208-104.3784
		c-84.0257-36.4263-169.0326-70.2283-257.2248-95.4304c-20.4799-5.8525-41.1331-11.0319-61.8246-16.0847
		c-6.2068-1.5156-5.4147,3.0746-6.5407,6.116c-1.2458,3.365-1.8131,6.1819,3.2001,7.425
		c10.3304,2.562,20.5377,5.6365,30.7518,8.6489c80.9643,23.8789,158.794,55.8857,235.4556,90.9113
		c1.4749,0.6737,2.8239,1.6229,4.8412,2.799c-12.9735,10.4692-19.2893,24.8638-25.5753,39.1514
		c-17.5067,39.792-23.5226,81.6743-21.8535,124.8439c1.833,47.4052,13.2742,92.2072,37.7512,133.1074
		c34.8922,58.3038,83.6935,99.7114,149.4573,119.181c78.6672,23.2897,157.6195,23.3177,236.4564,0.4906
		c39.1527-11.3368,75.109-29.0398,106.343-55.5454c30.4406-25.8323,52.7947-57.1328,63.1775-96.1514
		c2.4666-9.2689,4.0638-18.7693,6.0568-28.1434c2.8058-0.8025,5.3862,0.1198,7.9176,0.795
		c41.2325,11.0034,83.0903,18.8037,125.3035,24.8984c6.3274,0.9136,10.538,0.1162,13.7841-6.1415
		c7.5077-14.4731,15.8545-28.5081,23.5802-42.8718c32.812-61.0051,64.5997-122.5068,89.448-187.3158
		c6.5529-17.0909,12.5768-34.3707,17.9452-51.8715c0.7383-2.407,2.755-5.1775,0.4023-7.4468
		C1452.3239,324.8076,1448.7997,323.9458,1445.5848,323.6608z M919.4418,515.5668c4.1942-4.7821,9.5997-5.8019,15.4119-4.8634
		c18.4218,2.9746,33.5592,11.9548,46.1069,25.6152c2.6271,2.8599,2.5137,5.9093,1.6693,9.2708
		c-3.1656,12.6021-14.347,19.9709-32.2925,19.5974c-10.3043-0.7274-21.6063-4.8523-30.4651-14.3617
		C910.2835,540.5321,910.2141,526.0884,919.4418,515.5668z M975.1534,608.3016c-11.996,7.2107-25.0189,9.7827-38.9188,8.8645
		c7.7318-3.0903,16.4559-3.8044,22.8121-9.913c0.349-0.3354,1.4268-0.4819,1.7214-0.219
		C965.324,611.1,970.2651,608.0183,975.1534,608.3016z M916.4568,580.8993c-0.467,0.809-1.3128,1.89-2.05,1.9398
		c-1.1865,0.0802-1.2521-1.2401-1.0938-2.1781c0.1577-0.9333,0.4738-1.931,1.8391-1.5917
		C915.9748,579.4087,917.1923,579.6254,916.4568,580.8993z M1160.0609,598.9078c-12.4784,50.7562-42.6664,88.014-87.2377,114.2748
		c-31.4069,18.5046-65.6051,29.4315-101.2242,35.6738c-58.2443,10.2074-116.0539,7.6431-173.3392-7.5432
		c-60.2151-15.963-107.2383-49.6191-138.7639-103.5385c-27.4941-47.0242-36.3305-98.2047-30.8589-152.1189
		c2.3035-22.6974,7.6601-44.5936,16.9018-65.4794c2.0184-4.5613,4.1007-9.1583,6.7491-13.3638
		c5.5659-8.8385,10.7073-17.7076,8.4774-30.3389c81.3367,38.2947,159.8403,78.302,242.1318,116.166
		c-5.8541,1.1997-9.2559,1.9727-12.6864,2.5846c-8.4222,1.5024-15.9775,4.8972-22.054,10.9232
		c-11.8156,11.7173-20.8295,25.3901-24.4329,41.7209c-6.442,29.1941,3.0366,53.2289,25.941,71.9131
		c14.6615,11.96,32.0706,17.7172,50.725,18.9133c27.0578,1.7349,52.3708-4.5222,74.9801-19.7148
		c15.1533-10.1824,26.3378-23.4829,28.5879-42.5618c0.912-7.7335-0.0402-15.2352-2.1733-22.71
		c-0.8802-3.0847-3.1088-5.8677-2.4111-10.7566c28.2753,11.4442,55.9722,21.926,84.1864,30.9557
		c17.1198,5.479,34.3534,10.6017,51.517,15.9449C1161.6954,591.913,1161.7568,592.0104,1160.0609,598.9078z"/>
	<path fill="#050502" d="M2278.1328,257.9841c-30.8945,13.2887-61.3909,27.4478-91.6392,42.1423
		c-75.4673,36.6621-149.271,76.604-224.4406,113.8546c-73.4259,36.3868-147.7507,70.6598-225.7537,96.3147
		c-50.3988,16.576-101.6726,29.297-154.431,35.7842c-5.8018,0.7133-8.3484-0.8622-10.77-5.7471
		c-7.4214-14.9695-13.4644-30.4169-17.8331-46.5392c-4.3651-16.1094-6.9435-32.5388-9.2069-49.0446
		c-0.8384-6.1129-1.4067-5.8824-8.8464-5.9664c-5.2443-0.0592-5.6816,2.6108-6.0511,6.7659
		c-2.3414,26.3386-2.2013,52.605,2.168,78.7244c3.4135,20.406,8.4707,40.3394,17.3175,59.2311
		c2.5939,5.5389,5.6281,6.938,11.4989,6.1124c16.1599-2.2723,32.323-4.4825,48.3347-7.6482
		c12.9297-2.5562,25.8198-5.3132,39.8553-8.2145c-0.8275,4.549-1.384,8.0497-2.1072,11.5157
		c-8.059,38.6299-0.0485,73.3595,25.2062,103.8938c13.7872,16.6694,30.6451,29.6068,49.5509,39.86
		c40.5322,21.9817,84.4183,32.4614,129.9755,35.9539c68.2943,5.2356,132.4413-10.2892,192.5629-42.1855
		c49.8997-26.4731,89.1851-64.0896,113.1138-115.9775c24.2324-52.547,29.8682-106.8428,11.0332-162.2916
		c-11.6721-34.3633-33.1355-60.5027-67.9922-73.9528c-0.4348-0.1677-0.6104-1.0071-0.9404-1.5922
		c1.0388-2.3033,3.4155-2.907,5.3618-3.9956c57.8379-32.3582,115.9775-64.1431,175.9622-92.4143
		c2.4089-1.1353,4.8137-2.2805,7.2019-3.4585c1.5332-0.7563,2.7065-1.6542,2.5486-3.7412
		C2289.2505,257.9496,2284.8862,255.0791,2278.1328,257.9841z M1809.7401,522.6206c1.0669-3.2135,2.6595-5.9238,6.14-7.3527
		c5.8394-2.3973,11.5359-5.1437,17.2825-7.7653c3.1278-1.4269,6.266-1.6724,9.7074-1.0566
		c5.5863,0.9993,11.0585,2.2449,16.3438,4.345c12.1614,4.8328,13.8333,7.6602,11.776,20.2814
		c-2.833,17.3809-17.0546,30.5754-33.0126,30.6285C1818.3595,561.7662,1803.5431,541.2865,1809.7401,522.6206z M1871.4753,596.2733
		c-10.384,12.7129-23.0109,20.4242-40.2026,18.8602c7.8333-2.6156,13.0538-8.9703,19.5643-13.0095
		C1856.4839,598.6205,1863.7885,595.5397,1871.4753,596.2733z M2129.1567,460.3636c16.156,51.7238,8.0295,100.7881-18.8401,147.002
		c-22.9734,39.5129-56.6321,67.8092-97.2141,87.8265c-44.0568,21.7313-90.5667,35.2003-139.9359,36.6951
		c-47.8917,1.4502-94.1886-6.3735-137.9934-26.5613c-14.9042-6.8688-28.6388-15.5675-40.8212-26.6597
		c-26.5-24.1283-35.9681-54.4659-32.1366-89.3601c2.2089-20.1157,2.6069-20.0808,21.7186-25.5088
		c23.7029-6.7319,46.9772-14.7476,70.0669-23.322c3.0426-1.1299,6.1418-2.1072,11.0016-3.7648
		c-7.741,18.4575-8.7097,35.3268-4.2655,52.7383c3.8416,15.05,13.1097,25.1737,26.8401,31.5137
		c16.2603,7.5082,33.5037,8.8801,50.861,5.9883c21.8467-3.6401,41.4786-12.6195,56.9503-28.8495
		c14.856-15.584,23.5682-33.78,20.2444-56.1013c-1.6818-11.2939-7.0121-20.7927-15.0631-28.6615
		c-3.4316-3.3541-6.0454-6.8759-7.5122-11.4594c-2.0387-6.3694-6.974-11.17-10.1193-16.7214
		c1.6469-2.5405,3.9747-3.1428,5.9967-4.1367c58.8848-28.9431,116.2592-60.7159,173.3698-92.9584
		c6.52-3.6809,10.9331-3.3778,16.9087,0.748C2104.8384,406.5037,2120.1194,431.4309,2129.1567,460.3636z M1883.218,552.0286
		c0.5265-3.1378,2.678-5.0492,5.04-6.8879C1890.0771,553.9351,1890.0771,553.9351,1883.218,552.0286z"/>
	<path fill="#050502" d="M1338.6982,842.7147c0.0269-0.0255,0.0537-0.0507,0.0804-0.0763l-0.094-0.231
		C1338.6897,842.513,1338.6936,842.6111,1338.6982,842.7147z"/>
	<path fill="#050502" d="M1663.0867,796.0153c-9.5896-7.3795-20.385-12.5199-31.5824-16.9193
		c-73.7432-28.9741-150.1183-37.203-228.6046-29.2689c-63.3469,6.4038-125.5984,19.6187-188.2957,30.057
		c-5.7655,0.96-11.5674,2.6957-14.9338,8.3689c3.381,3.6282,7.3586,0.4451,11.3556,1.9457c0.165,0.6493,0.302,0.9692,0.3197,1.2955
		c0.0715,1.3285,0.1282,2.6584,0.1516,3.9885c0.4634,26.3571,13.3185,43.9275,37.8362,53.095
		c4.9769,1.861,10.071,3.5674,15.2529,4.6908c13.3306,2.8896,26.7345,5.4427,40.1202,8.0745
		c19.2821,3.791,38.5824,7.5316,56.4736,16.1482c25.7236,12.3888,40.749,32.4771,43.6864,61.1517
		c0.4418,4.3134,0.9083,8.5831,2.2296,12.7584c1.7089,5.3994,4.598,10.0989,10.2271,11.3058
		c5.1434,1.1027,4.4467,3.7728,3.5615,7.2393c-5.3499,20.9518-10.6453,41.9177-16.0201,62.8632
		c-0.9919,3.8652-2.3253,7.6417-3.3881,11.4905c-0.7949,2.879,0.6169,4.6249,3.3925,4.8446c2.968,0.235,6.0107,0.2455,8.9595-0.1294
		c9.6853-1.231,17.0966-5.11,18.6339-16.0632c0.5502-3.9207,2.0973-7.6941,3.08-11.5626
		c4.5868-18.0562,9.1675-36.1143,13.6725-54.191c0.9919-3.9801,2.2578-7.1465,6.6338-9.0529
		c26.8204-11.6858,48.5688-29.9843,67.057-52.4047c5.7236-6.9408,11.4894-13.8525,18.1305-19.9586
		c10.1912-9.37,22.0751-14.61,36.0532-14.9788c8.3569-0.2203,16.6267,0.3813,24.9027,1.4753
		c15.5432,2.0547,30.5826-0.491,45.0676-6.0299c10.5579-4.0377,19.0836-11.0602,24.759-20.8856
		C1683.4945,825.1494,1679.9335,808.9796,1663.0867,796.0153z M1282.3275,782.9254c2.6899-7.8773,9.0634-8.3741,15.739-8.2811
		C1293.1832,778.0486,1290.5205,785.7861,1282.3275,782.9254z M1338.8978,842.9312l-0.1191-0.2927
		c-0.0267,0.0256-0.0536,0.0508-0.0804,0.0763c0.4912,10.7487-0.5123,11.213-14.2625,7.5271
		c5.071-2.1683,10.2771-3.748,14.2625-7.5271c-0.0046-0.1036-0.0085-0.2017-0.0135-0.3073l0.094,0.231
		c0.1033-0.0991,0.2094-0.1931,0.311-0.2953L1338.8978,842.9312z M1367.7926,858.7242c-4.6859-1.4591-9.4613-1.0841-14.8236-4.2688
		c7.0956-1.6866,11.8328-5.8893,18.0109-8.8499C1370.8613,850.5953,1369.795,854.5781,1367.7926,858.7242z M1433.2184,939.6991
		c9.812,6.4568,19.4154-0.6493,26.9851,4.9072C1452.6514,952.563,1440.3236,951.2726,1433.2184,939.6991z M1489.0532,832.1006
		c3.3093-9.338,3.3138-9.3842,12.0369-8.5358c3.2452,0.3157,6.6649,0.14,10.2263,3.0206
		C1503.1576,826.8864,1498.5524,836.3464,1489.0532,832.1006z M1544.5983,836.7986c-0.9893,0.0448-2.4836,0.6787-2.8809,0.2466
		c-4.4213-4.811-9.7893-6.4003-16.1378-5.4219c-0.2417,0.0371-1.0066-1.6517-1.0902-2.5759
		c-0.2349-2.5953,1.7455-2.2295,3.3357-2.1976c1.3212,0.0264,2.6401,0.1793,3.9592,0.2858
		c7.5492,0.6094,15.0981,1.2217,24.0693,1.948C1552.407,833.7416,1549.3579,836.5824,1544.5983,836.7986z M1585.7976,803.8605
		c-8.1715,5.1556-17.4188,6.3644-26.8602,6.2268c-24.3457-0.3546-48.4933-3.3694-72.7023-5.5579
		c-10.9451-0.9896-21.8833-2.139-32.85-2.7791c-8.8783-0.5181-17.6404-2.9238-26.7188-1.0681
		c-3.2577,0.6659-7.2942,0.7845-9.4896-3.531c-1.2316-2.4204-4.1871-1.9065-6.3805-1.566
		c-4.2584,0.6611-8.5721,1.4226-12.6252,2.8284c-4.6272,1.6047-9.0377,2.207-13.5468,0.0664
		c-2.2035-1.0458-4.517-1.1527-6.8398-0.9908c-13.8748,0.967-27.0626-2.6112-40.2709-6.0336
		c-1.923-0.4983-3.7805-1.2693-5.6401-1.9875c-2.5308-0.9775-5.443-2.1946-5.8058-4.9727c-0.4756-3.6431,3.022-4.7736,5.6512-6.0457
		c4.7288-2.2875,9.8591-3.6638,11.2839-10.085c0.615-2.7716,4.511-2.3098,7.036-2.6378c30.0696-3.9077,60.1989-6.828,90.579-7.1183
		c42.5697-0.4067,84.401,4.3536,125.3578,16.1743c1.2695,0.3665,2.5365,0.7423,4.4089,1.2906
		c-4.9718,9.7242-4.7777,10.3247,4.4091,13.2069c3.8217,1.199,7.7076,2.2729,11.0569,4.4991
		C1590.7228,797.0186,1590.7959,800.707,1585.7976,803.8605z M1610.8137,852.0867c6.1127-5.5796,13.1143-3.562,17.7979-6.9548
		c5.2545-3.8065,11.2103-3.6062,17.1272-3.4421C1635.4939,848.0208,1624.3754,850.6355,1610.8137,852.0867z"/>
	<path fill="#050502" d="M1201.8864,999.6049c-3.8282-0.9183-7.9308-0.9528-11.9089-0.9469
		c-63.0984,0.0922-125.806,5.377-188.1117,15.1047c-88.0608,13.7489-174.1031,35.6814-258.0164,65.7007
		c-190.8311,68.2681-362.5568,168.5405-511.3507,306.8372C160.8813,1452.8654,98.194,1526.968,46.202,1609.9563
		c-6.4368,10.2739-11.5967,20.8872-13.8649,32.689c0.6333-0.6704,1.6389-1.5007,2.3472-2.5347
		c1.3147-1.9194,2.4688-3.9497,3.6675-5.9475c45.1497-75.2394,99.0748-143.6331,160.8671-205.855
		c93.0363-93.6831,198.9631-169.8442,315.5373-231.4248c123.2451-65.1044,253.2188-111.5542,389.6021-140.236
		c94.8442-19.9459,190.6636-30.65,287.5995-31.1852c2.6652-0.0148,5.3483,0.0734,7.9913-0.1971
		c7.7014-0.7878,11.626-4.2816,12.2996-10.7008C1213.0112,1007.2981,1209.1865,1001.3564,1201.8864,999.6049z"/>
	<path fill="#050502" d="M1265.0601,916.5316c-3.6646-2.4789-7.9008-3.507-12.1311-4.4182
		c-37.4873-8.0754-75.3561-13.7047-113.5854-16.53c-51.5916-3.8124-103.1617-3.3416-154.7345,1.2303
		c-64.1834,5.6897-127.2794,17.2262-189.5278,33.6632c-116.5025,30.7634-226.6979,77.0922-332.1902,134.9318
		c-92.5438,50.7401-179.6332,109.5825-261.2004,176.584c-6.6945,5.4993-12.383,11.6371-16.2944,21.0704
		c5.9111-4.6279,10.7617-8.3386,15.5201-12.1642c54.8543-44.1027,112.4133-84.368,172.4722-121.0342
		c132.0149-80.5952,271.4503-144.2886,421.4023-183.6978c76.2422-20.0374,153.6486-32.7787,232.6027-35.1161
		c60.4843-1.7904,120.5183,2.0177,179.8613,14.3309c13.0278,2.7034,25.9279,6.0249,38.8809,9.0863
		c7.5585,1.7864,14.6831,1.224,20.4478-4.5258C1271.1653,925.3728,1270.4371,920.1689,1265.0601,916.5316z"/>
	<path fill="#050502" d="M2519.7949,1309.8142c-133.3401-126.733-288.8416-216.3064-462.8496-274.4481
		c-77.9182-26.035-157.7274-43.7437-239.4652-52.7463c-36.1486-3.9813-72.3801-5.7008-108.6959-6.4138
		c-3.689-0.0724-7.3745,0.0839-10.854,1.3555c-5.176,1.8914-7.8553,6.2339-7.4952,11.6912
		c0.3329,5.0448,3.0675,8.1581,8.8646,9.2059c3.2411,0.5857,6.6299,0.4924,9.9509,0.4758
		c33.6898-0.1682,67.298,1.707,100.806,4.8806c62.0853,5.8801,123.4236,16.3444,183.9181,31.5714
		c140.4788,35.3601,271.4685,92.1753,391.3206,173.8857c98.6543,67.2585,184.0378,148.2684,253.0364,246.0759
		c13.4177,19.0199,25.7612,38.7428,38.3469,58.1674c-1.22-7.9333-3.9214-14.9268-8.0117-21.5431
		C2627.0701,1424.6824,2577.0554,1364.2372,2519.7949,1309.8142z"/>
	<path fill="#050502" d="M1577.764,1123.6234c-18.6619-0.212-37.3248-0.3359-55.9874-0.4922
		c-49.9877-0.4185-99.9695-1.0928-149.6718,6.0336c-43.8362,6.2852-85.9662,17.9573-125.4388,38.3818
		c-31.318,16.205-59.3708,36.8999-84.3046,61.8074c-6.6334,6.6265-6.3153,10.0428,1.9711,14.3667
		c11.0842,5.7837,22.5708,9.2242,35.5192,5.874c15.1635-3.9232,30.1897-8.1659,44.9193-13.4863
		c31.9742-11.5494,62.7211-26.0139,93.8877-39.4794c29.6675-12.8179,59.5702-24.9762,91.1665-32.3154
		c8.4276-1.9575,17.0005-3.2823,25.4595-5.1151c7.9343-1.7191,9.2769-2.6431,14.4968-9.1173
		c-71.6746,9.677-140.2465,28.1809-211.2427,44.0905c5.1521-6.4763,11.1978-6.7174,16.097-8.9365
		c58.1702-26.3478,119.6547-39.6418,182.8794-46.0823c35.8459-3.6516,71.7981-4.7372,107.7875-5.2689
		c4.6578-0.0688,9.3834,0.0537,13.8059-1.7324c3.2222-1.3015,8.5129-1.7933,7.59-6.1956
		C1585.9724,1122.4916,1580.9945,1123.66,1577.764,1123.6234z"/>
	<path fill="#050502" d="M2536.7522,1180.6121c-108.6746-89.0325-227.4634-161.24-357.6345-214.3206
		c-109.3208-44.5787-222.3333-73.262-340.8754-77.7687c-58.5255-2.225-116.4534,2.1935-173.844,13.7822
		c-5.2064,1.0513-10.5583,1.6381-15.4601,3.8801c-3.0837,1.4106-6.1812,3.1035-6.2314,7.0404
		c-0.0531,4.1542,2.6271,6.6331,6.1171,8.3613c5.1211,2.5359,10.2382,1.8053,15.5509,0.4153
		c75.007-19.6257,151.2239-23.1223,228.0544-16.0208c71.5605,6.6146,141.3025,22.309,209.5083,44.7565
		c155.3044,51.113,296.3372,128.7878,425.145,229.1014c7.0112,5.4604,13.8159,11.1862,20.7168,16.7882
		C2545.4177,1190.3674,2541.979,1184.8939,2536.7522,1180.6121z"/>
	<path fill="#050502" d="M1234.9883,1094.6271c-2.6224-0.3232-5.3114-0.4684-7.9441-0.2922
		c-51.7271,3.463-102.3328,13.0564-151.953,27.9711c-88.1748,26.5034-169.2908,67.6287-245.0853,119.4182
		c-131.986,90.1846-241.3729,203.0143-332.754,333.7496c-4.7813,6.8405-9.1514,13.7848-10.2003,21.9601
		c0.0872-0.0356,0.8545-0.106,1.1809-0.5222c2.0424-2.604,4.047-5.2424,5.954-7.9473
		c77.9553-110.5665,170.1976-207.5488,277.0471-290.5175c70.8242-54.9951,146.6645-101.6521,229.8831-135.7214
		c55.7371-22.8185,113.2053-39.1449,173.1787-46.0831c16.5621-1.9161,33.1406-3.4839,49.8275-3.5046
		c5.515-0.007,10.6659-1.0826,14.7852-4.9296c2.4969-2.3319,4.2084-5.2896,3.1313-8.9156
		C1241.0299,1095.8931,1238.0299,1095.0018,1234.9883,1094.6271z"/>
	<path fill="#050502" d="M2064.6694,1219.5973c-67.6138-53.38-140.7448-97.2815-221.8447-127.1818
		c-52.4645-19.3427-106.4321-31.9723-162.3331-35.7477c-2.973-0.2008-5.9895-0.251-8.9509,0.0154
		c-2.6932,0.2422-5.3964,1.0724-6.1118,4.2246c-0.6606,2.911,0.853,5.1493,2.8097,7.1018
		c3.6354,3.6273,8.2953,3.7368,13.0198,3.9094c37.7578,1.3793,74.8895,6.9036,111.427,16.5981
		c69.5465,18.4534,133.7308,48.9031,194.0625,87.5765c119.9324,76.8782,219.3193,175.2509,302.1494,290.7576
		c2.8118,3.921,5.2258,8.152,8.0991,10.5631c-1.0735-7.2876-1.6782-8.8524-7.2488-16.8877
		C2226.4658,1369.2462,2151.9036,1288.4673,2064.6694,1219.5973z"/>
	<path fill="#FFEA00" d="M1155.0768,589.8525c-17.1636-5.3433-34.3972-10.4659-51.517-15.9449
		c-28.2142-9.0297-55.9111-19.5115-84.1864-30.9557c-0.6976,4.8889,1.5309,7.6719,2.4111,10.7566
		c2.1332,7.4747,3.0853,14.9764,2.1733,22.71c-2.2501,19.0789-13.4346,32.3794-28.5879,42.5618
		c-22.6093,15.1926-47.9223,21.4497-74.9801,19.7148c-18.6544-1.1962-36.0635-6.9534-50.725-18.9133
		c-22.9045-18.6842-32.3831-42.719-25.941-71.9131c3.6034-16.3308,12.6172-30.0037,24.4329-41.7209
		c6.0765-6.026,13.6318-9.4208,22.054-10.9232c3.4305-0.6119,6.8323-1.3849,12.6864-2.5846
		c-82.2915-37.864-160.7952-77.8713-242.1318-116.166c2.23,12.6312-2.9114,21.5004-8.4774,30.3389
		c-2.6484,4.2054-4.7308,8.8025-6.7491,13.3638c-9.2417,20.8857-14.5983,42.782-16.9018,65.4794
		c-5.4716,53.9142,3.3648,105.0947,30.8589,152.1189c31.5255,53.9193,78.5488,87.5754,138.7639,103.5385
		c57.2853,15.1863,115.095,17.7506,173.3392,7.5432c35.6191-6.2423,69.8174-17.1692,101.2242-35.6738
		c44.5713-26.2607,74.7593-63.5186,87.2377-114.2748C1161.7568,592.0104,1161.6954,591.913,1155.0768,589.8525z"/>
	<path fill="#FFEA00" d="M934.8538,510.7034c-5.8123-0.9385-11.2178,0.0813-15.4119,4.8634
		c-9.2278,10.5216-9.1583,24.9653,0.4305,35.2583c8.8589,9.5094,20.1608,13.6343,30.4651,14.3617
		c17.9454,0.3735,29.1268-6.9954,32.2925-19.5974c0.8444-3.3615,0.9578-6.4109-1.6693-9.2708
		C968.413,522.6582,953.2756,513.678,934.8538,510.7034z"/>
	<path fill="#FFEA00" d="M960.7681,607.0342c-0.2946-0.2629-1.3724-0.1165-1.7214,0.219
		c-6.3563,6.1085-15.0803,6.8226-22.8121,9.913c13.9,0.9182,26.9229-1.6538,38.9188-8.8645
		C970.2651,608.0183,965.324,611.1,960.7681,607.0342z"/>
	<path fill="#FFEA00" d="M915.1519,579.0642c-1.3651-0.3342-1.6812,0.6635-1.8389,1.5968c-0.1584,0.938-0.0928,2.2583,1.0938,2.1781
		c0.7372-0.0498,1.583-1.1309,2.05-1.9398C917.1923,579.6254,915.9748,579.4087,915.1519,579.0642z"/>
	<path fill="#FFEA00" d="M2079.2134,388.8107c-5.9756-4.1259-10.3887-4.429-16.9087-0.748
		c-57.1106,32.2424-114.485,64.0153-173.3698,92.9584c-2.022,0.9939-4.3499,1.5962-5.9967,4.1367
		c3.1453,5.5514,8.0806,10.3521,10.1193,16.7214c1.4668,4.5835,4.0806,8.1052,7.5122,11.4594
		c8.051,7.8688,13.3813,17.3676,15.0631,28.6615c3.3239,22.3213-5.3884,40.5173-20.2444,56.1013
		c-15.4717,16.23-35.1036,25.2094-56.9503,28.8495c-17.3573,2.8918-34.6007,1.5199-50.861-5.9883
		c-13.7303-6.34-22.9985-16.4636-26.8401-31.5137c-4.4442-17.4115-3.4755-34.2808,4.2655-52.7383
		c-4.8597,1.6576-7.959,2.6349-11.0016,3.7648c-23.0897,8.5745-46.364,16.5901-70.0669,23.322
		c-19.1117,5.428-19.5098,5.3931-21.7186,25.5088c-3.8315,34.8942,5.6366,65.2318,32.1366,89.3601
		c12.1824,11.0922,25.917,19.7909,40.8212,26.6597c43.8048,20.1877,90.1017,28.0115,137.9934,26.5613
		c49.3693-1.4948,95.8792-14.9637,139.9359-36.6951c40.582-20.0173,74.2407-48.3136,97.2141-87.8265
		c26.8696-46.2139,34.9961-95.2782,18.8401-147.002C2120.1194,431.4309,2104.8384,406.5037,2079.2134,388.8107z"/>
	<path fill="#FFEA00" d="M1859.2137,510.791c-5.2853-2.1001-10.7574-3.3457-16.3438-4.345
		c-3.4414-0.6157-6.5796-0.3702-9.7074,1.0566c-5.7466,2.6216-11.4431,5.3679-17.2825,7.7653
		c-3.4805,1.4288-5.0731,4.1392-6.14,7.3527c-6.197,18.6659,8.6194,39.1456,28.2371,39.0803
		c15.958-0.0531,30.1796-13.2477,33.0126-30.6285C1873.047,518.4512,1871.3751,515.6238,1859.2137,510.791z"/>
	<path fill="#FFEA00" d="M1850.837,602.124c-6.5105,4.0392-11.7311,10.3939-19.5643,13.0095
		c17.1918,1.564,29.8186-6.1473,40.2026-18.8602C1863.7885,595.5397,1856.4839,598.6205,1850.837,602.124z"/>
	<path fill="#FFEA00" d="M1883.218,552.0286c6.8591,1.9065,6.8591,1.9065,5.04-6.8879
		C1885.896,546.9794,1883.7445,548.8907,1883.218,552.0286z"/>
	<path fill="#FFEA00" d="M1585.8505,793.7797c-3.3492-2.2262-7.2352-3.3002-11.0569-4.4991
		c-9.1868-2.8822-9.3809-3.4827-4.4091-13.2069c-1.8724-0.5483-3.1394-0.9242-4.4089-1.2906
		c-40.9568-11.8207-82.7881-16.5811-125.3578-16.1743c-30.3801,0.2903-60.5094,3.2106-90.579,7.1183
		c-2.525,0.328-6.421-0.1338-7.036,2.6378c-1.4248,6.4211-6.5552,7.7975-11.2839,10.085c-2.6293,1.2721-6.1268,2.4026-5.6512,6.0457
		c0.3628,2.7781,3.275,3.9951,5.8058,4.9727c1.8596,0.7183,3.7172,1.4893,5.6401,1.9875
		c13.2083,3.4224,26.3961,7.0006,40.2709,6.0336c2.3229-0.1619,4.6364-0.0549,6.8398,0.9908
		c4.509,2.1406,8.9196,1.5383,13.5468-0.0664c4.0531-1.4058,8.3668-2.1672,12.6252-2.8284c2.1934-0.3405,5.1489-0.8544,6.3805,1.566
		c2.1954,4.3156,6.2319,4.1969,9.4896,3.531c9.0784-1.8557,17.8405,0.55,26.7188,1.0681c10.9667,0.64,21.9049,1.7894,32.85,2.7791
		c24.209,2.1885,48.3566,5.2032,72.7023,5.5579c9.4414,0.1376,18.6887-1.0712,26.8602-6.2268
		C1590.7959,800.707,1590.7228,797.0186,1585.8505,793.7797z"/>
	<path fill="#FFEA00" d="M1527.8251,826.8497c-1.5902-0.0319-3.5706-0.3977-3.3357,2.1976c0.0836,0.9242,0.8485,2.613,1.0902,2.5759
		c6.3485-0.9784,11.7166,0.6108,16.1378,5.4219c0.3972,0.4321,1.8916-0.2018,2.8809-0.2466
		c4.7596-0.2162,7.8087-3.057,11.2554-7.7151c-8.9712-0.7263-16.5201-1.3386-24.0693-1.948
		C1530.4652,827.0291,1529.1462,826.8761,1527.8251,826.8497z"/>
	<path fill="#FFEA00" d="M1628.6116,845.1318c-4.6836,3.3928-11.6852,1.3752-17.7979,6.9548
		c13.5616-1.4512,24.6802-4.0659,34.925-10.397C1639.8219,841.5256,1633.8661,841.3253,1628.6116,845.1318z"/>
	<path fill="#FFEA00" d="M1433.2184,939.6991c7.1052,11.5735,19.433,12.8639,26.9851,4.9072
		C1452.6338,939.0498,1443.0304,946.1559,1433.2184,939.6991z"/>
	<path fill="#FFEA00" d="M1489.0532,832.1006c9.4991,4.2458,14.1044-5.2142,22.2632-5.5151
		c-3.5614-2.8806-6.9811-2.705-10.2263-3.0206C1492.3671,822.7164,1492.3625,822.7626,1489.0532,832.1006z"/>
	<path fill="#FFEA00" d="M1367.7926,858.7242c2.0024-4.1461,3.0687-8.1289,3.1873-13.1187
		c-6.1781,2.9606-10.9153,7.1632-18.0109,8.8499C1358.3313,857.6401,1363.1067,857.2651,1367.7926,858.7242z"/>
	<path fill="#FFEA00" d="M1282.3275,782.9254c8.193,2.8607,10.8557-4.8768,15.7407-8.2778
		C1291.3909,774.5513,1285.0175,775.0481,1282.3275,782.9254z"/>
	<path fill="#FFEA00" d="M1338.7167,842.6973c-3.9878,3.7917-9.202,5.373-14.2809,7.5446
		C1338.1837,853.9271,1339.1891,853.4634,1338.7167,842.6973z"/>
	<path fill="#FFEA00" d="M1338.7034,842.3843c0.0049,0.1075,0.0087,0.2075,0.0133,0.313c0.1243-0.1182,0.2512-0.2316,0.373-0.3541
		L1338.7034,842.3843z"/>
	<path fill="#FFEA00" d="M1338.8978,842.9312l0.1919-0.588c0,0-0.3864,0.0411-0.3956,0.0527
		C1338.6847,842.4075,1338.8978,842.9312,1338.8978,842.9312z"/>
</g>
</svg>
